<svg xmlns="http://www.w3.org/2000/svg" viewBox="0 0 84.87 133.29"><defs><style>.a{fill:#c92f27;stroke:#c92f27;stroke-miterlimit:10;}</style></defs><path class="a" d="M43.51,5.64l.33.15a27,27,0,0,1,3.22,1.84,30.77,30.77,0,0,1,4.09,3.28,40.1,40.1,0,0,1,5.07,5.89c.76,1.05,1.5,2.12,2.16,3.23.14.23.21.5.33.74s.31.6.46.91a24.59,24.59,0,0,1,2,16.67c-1,4.61-2.5,9.22-2.1,13.91a24.48,24.48,0,0,0,11.6,18.19,3.64,3.64,0,0,0,1.6.6c5.84.37,7.9-13.19,7.63-16.95a21.59,21.59,0,0,0-2.34-8.33c-1-2-3.33-4.46-4-5.46a40.82,40.82,0,0,1,16.77,33c0,.5,0,1,0,1.51a40.59,40.59,0,0,1-7.13,21.59c-4.9,7.14-17.81,14.1-20.36,15.51a10.78,10.78,0,0,0,1.44-3.27,26.31,26.31,0,0,0,1-3.73c1.32-6.78-.14-14.77-4.59-20.19-4-4.81-10.46-7-13.7-12.48-2.37-4-2.11-8.8-1.38-13.25a14.28,14.28,0,0,1,1-4.16c-.39.77-1.88,1.59-2.53,2.19A25.15,25.15,0,0,0,42,59.25a40.63,40.63,0,0,0-4.07,6.17A89.64,89.64,0,0,0,30.6,80.54a36.63,36.63,0,0,0-2.32,11C28,99,31.68,106.49,36.69,111.9c-7.71-3.47-11.59-5.51-15.22-9a40.56,40.56,0,0,1-10.1-15.29C7.53,77.18,9,64.32,16.05,55.55c2.36-2.93,5.41-5.27,8.26-7.69C32.73,40.75,44,32.29,44.45,20.22a20.78,20.78,0,0,0-1.52-8.49C41.8,9,39.84,6.67,38.49,4l1.92.54a17,17,0,0,1,1.72.51C42.6,5.23,43.06,5.43,43.51,5.64Z" transform="translate(-8.79 -3.21)"/><path class="a" d="M92.35,108.78a45.27,45.27,0,0,1-77,10.09c9.59,5,24.76,6.93,41.23,4.4C71.56,121,84.39,115.5,92.35,108.78Z" transform="translate(-8.79 -3.21)"/></svg>